<svg width="63" height="63" viewBox="0 0 63 63" fill="none" xmlns="http://www.w3.org/2000/svg">
<g id="&#240;&#159;&#166;&#134; icon &#34;equalizer&#34;">
<path id="Vector" d="M10.4422 16.9715V0H6.26536V16.9715C4.47212 17.4347 2.88362 18.4806 1.74952 19.9449C0.615412 21.4091 0 23.2087 0 25.0608C0 26.9129 0.615412 28.7125 1.74952 30.1768C2.88362 31.641 4.47212 32.6869 6.26536 33.1501V62.6521H10.4422V33.1501C12.2354 32.6869 13.8239 31.641 14.958 30.1768C16.0921 28.7125 16.7075 26.9129 16.7075 25.0608C16.7075 23.2087 16.0921 21.4091 14.958 19.9449C13.8239 18.4806 12.2354 17.4347 10.4422 16.9715ZM8.35376 29.2376C7.52766 29.2376 6.72012 28.9927 6.03325 28.5337C5.34638 28.0748 4.81103 27.4224 4.49489 26.6592C4.17876 25.896 4.09605 25.0562 4.25721 24.246C4.41837 23.4358 4.81617 22.6915 5.40031 22.1074C5.98445 21.5232 6.72868 21.1254 7.5389 20.9643C8.34912 20.8031 9.18894 20.8858 9.95215 21.202C10.7154 21.5181 11.3677 22.0534 11.8266 22.7403C12.2856 23.4272 12.5306 24.2347 12.5306 25.0608C12.5293 26.1682 12.0889 27.2299 11.3058 28.0129C10.5228 28.7959 9.46113 29.2364 8.35376 29.2376Z" fill="#ED6E05"/>
<path id="Vector_2" d="M33.4146 35.7672V0H29.2378V35.7672C27.4445 36.2303 25.856 37.2762 24.7219 38.7405C23.5878 40.2048 22.9724 42.0044 22.9724 43.8564C22.9724 45.7085 23.5878 47.5081 24.7219 48.9724C25.856 50.4366 27.4445 51.4826 29.2378 51.9457V62.6521H33.4146V51.9457C35.2078 51.4826 36.7963 50.4366 37.9304 48.9724C39.0645 47.5081 39.6799 45.7085 39.6799 43.8564C39.6799 42.0044 39.0645 40.2048 37.9304 38.7405C36.7963 37.2762 35.2078 36.2303 33.4146 35.7672ZM31.3262 48.0333C30.5001 48.0333 29.6925 47.7883 29.0057 47.3293C28.3188 46.8704 27.7834 46.2181 27.4673 45.4548C27.1512 44.6916 27.0685 43.8518 27.2296 43.0416C27.3908 42.2314 27.7886 41.4871 28.3727 40.903C28.9569 40.3189 29.7011 39.9211 30.5113 39.7599C31.3215 39.5987 32.1614 39.6814 32.9246 39.9976C33.6878 40.3137 34.3401 40.8491 34.7991 41.5359C35.258 42.2228 35.503 43.0304 35.503 43.8564C35.5017 44.9638 35.0613 46.0255 34.2782 46.8085C33.4952 47.5916 32.4335 48.032 31.3262 48.0333Z" fill="#ED6E05"/>
<path id="Vector_3" d="M56.387 8.61792V0H52.2102V8.61792C50.4169 9.08111 48.8284 10.127 47.6943 11.5913C46.5602 13.0555 45.9448 14.8551 45.9448 16.7072C45.9448 18.5593 46.5602 20.3589 47.6943 21.8232C48.8284 23.2874 50.4169 24.3333 52.2102 24.7965V62.6521H56.387V24.7965C58.1802 24.3333 59.7687 23.2874 60.9028 21.8232C62.0369 20.3589 62.6523 18.5593 62.6523 16.7072C62.6523 14.8551 62.0369 13.0555 60.9028 11.5913C59.7687 10.127 58.1802 9.08111 56.387 8.61792ZM54.2986 20.884C53.4725 20.884 52.6649 20.6391 51.9781 20.1801C51.2912 19.7212 50.7558 19.0688 50.4397 18.3056C50.1236 17.5424 50.0409 16.7026 50.202 15.8924C50.3632 15.0821 50.761 14.3379 51.3451 13.7538C51.9293 13.1696 52.6735 12.7718 53.4837 12.6107C54.2939 12.4495 55.1338 12.5322 55.897 12.8484C56.6602 13.1645 57.3125 13.6998 57.7715 14.3867C58.2304 15.0736 58.4754 15.8811 58.4754 16.7072C58.4741 17.8146 58.0337 18.8763 57.2507 19.6593C56.4676 20.4423 55.406 20.8828 54.2986 20.884Z" fill="#ED6E05"/>
</g>
</svg>
