<svg width="58" height="61" viewBox="0 0 58 61" fill="none" xmlns="http://www.w3.org/2000/svg">
<g id="&#240;&#159;&#166;&#134; icon &#34;list&#34;">
<path id="Vector" d="M58.0001 6.44434H22.5557V10.7406H58.0001V6.44434Z" fill="#ED6E05"/>
<path id="Vector_2" d="M0 8.59259C0 10.292 0.503947 11.9533 1.44811 13.3664C2.39228 14.7794 3.73426 15.8808 5.30435 16.5311C6.87444 17.1815 8.60213 17.3516 10.2689 17.0201C11.9357 16.6885 13.4668 15.8702 14.6685 14.6685C15.8702 13.4668 16.6885 11.9357 17.0201 10.2689C17.3516 8.60213 17.1815 6.87444 16.5311 5.30435C15.8808 3.73426 14.7794 2.39228 13.3664 1.44811C11.9533 0.503947 10.292 0 8.59259 0C6.31448 0.00255856 4.13041 0.908668 2.51954 2.51954C0.908668 4.13041 0.00255856 6.31448 0 8.59259ZM8.59259 4.2963C9.44232 4.2963 10.273 4.54827 10.9795 5.02035C11.686 5.49244 12.2367 6.16343 12.5619 6.94847C12.887 7.73352 12.9721 8.59736 12.8063 9.43076C12.6406 10.2642 12.2314 11.0297 11.6305 11.6305C11.0297 12.2314 10.2642 12.6406 9.43076 12.8063C8.59736 12.9721 7.73352 12.887 6.94847 12.5619C6.16343 12.2367 5.49244 11.686 5.02035 10.9795C4.54827 10.273 4.2963 9.44232 4.2963 8.59259C4.29758 7.45354 4.75063 6.3615 5.55607 5.55607C6.3615 4.75063 7.45354 4.29758 8.59259 4.2963Z" fill="#ED6E05"/>
<path id="Vector_3" d="M58.0001 27.9258H22.5557V32.2221H58.0001V27.9258Z" fill="#ED6E05"/>
<path id="Vector_4" d="M8.59259 38.6666C10.292 38.6666 11.9533 38.1627 13.3664 37.2185C14.7794 36.2744 15.8808 34.9324 16.5311 33.3623C17.1815 31.7922 17.3516 30.0645 17.0201 28.3977C16.6885 26.7309 15.8702 25.1999 14.6685 23.9982C13.4668 22.7965 11.9357 21.9781 10.2689 21.6466C8.60213 21.315 6.87444 21.4852 5.30435 22.1355C3.73426 22.7859 2.39228 23.8872 1.44811 25.3003C0.503947 26.7133 0 28.3746 0 30.074C0.00255856 32.3522 0.908668 34.5362 2.51954 36.1471C4.13041 37.758 6.31448 38.6641 8.59259 38.6666ZM8.59259 25.7777C9.44232 25.7777 10.273 26.0297 10.9795 26.5018C11.686 26.9739 12.2367 27.6449 12.5619 28.4299C12.887 29.215 12.9721 30.0788 12.8063 30.9122C12.6406 31.7456 12.2314 32.5111 11.6305 33.112C11.0297 33.7128 10.2642 34.122 9.43076 34.2878C8.59736 34.4536 7.73352 34.3685 6.94847 34.0433C6.16343 33.7181 5.49244 33.1675 5.02035 32.4609C4.54827 31.7544 4.2963 30.9238 4.2963 30.074C4.29758 28.935 4.75063 27.8429 5.55607 27.0375C6.3615 26.2321 7.45354 25.779 8.59259 25.7777Z" fill="#ED6E05"/>
<path id="Vector_5" d="M58.0001 49.4072H22.5557V53.7035H58.0001V49.4072Z" fill="#ED6E05"/>
<path id="Vector_6" d="M8.59259 60.1481C10.292 60.1481 11.9533 59.6441 13.3664 58.7C14.7794 57.7558 15.8808 56.4138 16.5311 54.8437C17.1815 53.2736 17.3516 51.546 17.0201 49.8792C16.6885 48.2124 15.8702 46.6813 14.6685 45.4796C13.4668 44.2779 11.9357 43.4595 10.2689 43.128C8.60213 42.7965 6.87444 42.9666 5.30435 43.617C3.73426 44.2673 2.39228 45.3687 1.44811 46.7817C0.503947 48.1947 0 49.856 0 51.5555C0.00255856 53.8336 0.908668 56.0177 2.51954 57.6285C4.13041 59.2394 6.31448 60.1455 8.59259 60.1481ZM8.59259 47.2592C9.44232 47.2592 10.273 47.5112 10.9795 47.9832C11.686 48.4553 12.2367 49.1263 12.5619 49.9114C12.887 50.6964 12.9721 51.5603 12.8063 52.3937C12.6406 53.2271 12.2314 53.9926 11.6305 54.5934C11.0297 55.1943 10.2642 55.6035 9.43076 55.7692C8.59736 55.935 7.73352 55.8499 6.94847 55.5247C6.16343 55.1996 5.49244 54.6489 5.02035 53.9424C4.54827 53.2359 4.2963 52.4052 4.2963 51.5555C4.29758 50.4164 4.75063 49.3244 5.55607 48.519C6.3615 47.7135 7.45354 47.2605 8.59259 47.2592Z" fill="#ED6E05"/>
</g>
</svg>
