<svg width="64" height="64" viewBox="0 0 64 64" fill="none" xmlns="http://www.w3.org/2000/svg">
<g id="&#240;&#159;&#166;&#134; icon &#34;library&#34;">
<path id="Vector" d="M60.8 0H20.2667C19.418 0 18.604 0.337142 18.0039 0.937258C17.4038 1.53737 17.0667 2.35131 17.0667 3.2V43.7333C17.0667 44.582 17.4038 45.396 18.0039 45.9961C18.604 46.5962 19.418 46.9333 20.2667 46.9333H60.8C61.6487 46.9333 62.4626 46.5962 63.0627 45.9961C63.6628 45.396 64 44.582 64 43.7333V3.2C64 2.35131 63.6628 1.53737 63.0627 0.937258C62.4626 0.337142 61.6487 0 60.8 0ZM59.7333 42.6667H21.3333V4.26667H59.7333V42.6667Z" fill="#ED6E05"/>
<path id="Vector_2" d="M12.8001 51.1999V8.5332H8.53345V52.2665C8.53345 53.1152 8.87059 53.9292 9.47071 54.5293C10.0708 55.1294 10.8848 55.4665 11.7334 55.4665H55.4668V51.1999H12.8001Z" fill="#ED6E05"/>
<path id="Vector_3" d="M4.26667 59.7331V17.0664H0V60.7997C0 61.6484 0.337142 62.4624 0.937258 63.0625C1.53737 63.6626 2.35131 63.9997 3.2 63.9997H46.9333V59.7331H4.26667Z" fill="#ED6E05"/>
</g>
</svg>
